<svg width="47.000000" height="46.000244" viewBox="0 0 47 46.0002" fill="none" xmlns="http://www.w3.org/2000/svg" xmlns:xlink="http://www.w3.org/1999/xlink">
	<desc>
			Created with Pixso.
	</desc>
	<defs/>
	<g opacity="0.100000">
		<circle cx="25.500000" cy="21.500000" r="21.500000" fill="#F6762C" fill-opacity="1.000000"/>
	</g>
	<path d="M12.8079 14.6926L4.26929 14.6926C3.08325 14.6926 2.07532 15.1078 1.245 15.9377C0.415161 16.7678 0 17.7758 0 18.9619L0 27.5002C0 28.6863 0.414917 29.6941 1.245 30.524C2.0752 31.354 3.0835 31.7693 4.26929 31.7693L9.25 31.7693C9.84277 31.7693 10.3469 31.9768 10.7621 32.3918C11.1771 32.8065 11.3846 33.3108 11.3846 33.9041L11.3846 34.6151C11.3846 36.1866 10.8286 37.5277 9.71692 38.6396C8.60522 39.7511 7.26379 40.307 5.69214 40.307L4.26929 40.307C3.88367 40.307 3.55017 40.4482 3.26843 40.7297C2.98694 41.0112 2.84607 41.3448 2.84607 41.7302L2.84607 44.5768C2.84607 44.9615 2.98694 45.2959 3.26843 45.5774C3.55042 45.8588 3.88354 46 4.26929 46L5.69226 46C7.23413 46 8.70532 45.6995 10.1063 45.0992C11.5071 44.499 12.7189 43.6873 13.7418 42.6643C14.7644 41.6414 15.5762 40.4298 16.1764 39.0288C16.7767 37.6281 17.0769 36.1569 17.0769 34.6152L17.0769 18.9617C17.0769 17.7755 16.6619 16.7676 15.8318 15.9376C15.0018 15.1077 13.9937 14.6926 12.8079 14.6926Z" fill="#F6762C" fill-opacity="1.000000" fill-rule="nonzero"/>
	<path d="M35.7545 15.9377C34.9246 15.1078 33.9165 14.6926 32.7305 14.6926L24.1921 14.6926C23.0061 14.6926 21.9982 15.1078 21.1682 15.9377C20.3383 16.7679 19.9233 17.7758 19.9233 18.9619L19.9233 27.5002C19.9233 28.6863 20.3383 29.6941 21.1682 30.524C21.9982 31.354 23.0062 31.7693 24.1921 31.7693L29.173 31.7693C29.7657 31.7693 30.2703 31.9768 30.6852 32.3918C31.0999 32.8068 31.3079 33.3108 31.3079 33.9041L31.3079 34.6151C31.3079 36.1866 30.7518 37.5277 29.6399 38.6396C28.5282 39.7511 27.1871 40.307 25.6154 40.307L24.1921 40.307C23.8068 40.307 23.4731 40.4482 23.1917 40.7297C22.9099 41.0112 22.7689 41.3448 22.7689 41.7302L22.7689 44.5768C22.7689 44.9615 22.9099 45.2959 23.1917 45.5774C23.473 45.8588 23.8068 46 24.1921 46L25.6154 46C27.157 46 28.6282 45.6995 30.0293 45.0992C31.4298 44.499 32.6415 43.6873 33.6644 42.6643C34.6874 41.6414 35.4995 40.4294 36.0994 39.0288C36.6996 37.6283 37 36.1569 37 34.6152L37 18.9617C36.9998 17.7755 36.585 16.7676 35.7545 15.9377Z" fill="#F6762C" fill-opacity="1.000000" fill-rule="nonzero"/>
</svg>
