<svg width="12.000000" height="12.000000" viewBox="0 0 12 12" fill="none" xmlns="http://www.w3.org/2000/svg" xmlns:xlink="http://www.w3.org/1999/xlink">
	<desc>
			Created with Pixso.
	</desc>
	<defs/>
	<path d="M6 0C2.69165 0 0 2.69153 0 6C0 9.30847 2.69165 12 6 12C9.30835 12 12 9.30847 12 6C12 2.69153 9.30835 0 6 0ZM5.64844 2.94507C5.11353 2.92212 4.58423 2.84692 4.07861 2.72473C4.15942 2.53333 4.24707 2.34961 4.34131 2.17554C4.729 1.46118 5.20508 0.959961 5.64844 0.77832L5.64844 2.94507ZM5.64844 3.64868L5.64844 5.64844L3.45264 5.64844C3.4834 4.86792 3.61646 4.09314 3.83643 3.38843C4.41943 3.53516 5.03149 3.62415 5.64844 3.64868ZM5.64844 6.35156L5.64844 8.35132C5.03149 8.37585 4.41943 8.46484 3.83643 8.61157C3.61646 7.90686 3.4834 7.13208 3.45264 6.35156L5.64844 6.35156ZM5.64844 9.05493L5.64844 11.2217C5.20508 11.04 4.729 10.5388 4.34131 9.82446C4.24707 9.65039 4.15942 9.46667 4.07861 9.27527C4.58423 9.15308 5.11353 9.07788 5.64844 9.05493ZM6.35156 9.05493C6.88647 9.07788 7.41577 9.15308 7.92139 9.27527C7.84058 9.46667 7.75293 9.65039 7.65869 9.82446C7.271 10.5388 6.79492 11.04 6.35156 11.2217L6.35156 9.05493ZM6.35156 8.35132L6.35156 6.35156L8.54736 6.35156C8.5166 7.13208 8.38354 7.90686 8.16357 8.61157C7.58057 8.46484 6.96851 8.37585 6.35156 8.35132ZM6.35156 5.64844L6.35156 3.64868C6.96851 3.62415 7.58057 3.53516 8.16357 3.38843C8.38354 4.09314 8.5166 4.86792 8.54736 5.64844L6.35156 5.64844ZM6.35156 2.94507L6.35156 0.77832C6.79492 0.959961 7.271 1.46118 7.65869 2.17554C7.75293 2.34961 7.84058 2.53333 7.92139 2.72473C7.41577 2.84692 6.88647 2.92212 6.35156 2.94507ZM8.27661 1.84009C8.10059 1.51562 7.90918 1.22961 7.70752 0.985596C8.41064 1.22571 9.04736 1.60974 9.58276 2.10229C9.27734 2.26587 8.94824 2.40796 8.60205 2.52673C8.50391 2.28821 8.39526 2.05859 8.27661 1.84009ZM3.72339 1.84009C3.60474 2.05859 3.49609 2.28821 3.39795 2.52673C3.05176 2.40796 2.72266 2.26587 2.41724 2.10229C2.95264 1.60974 3.58936 1.22571 4.29248 0.985596C4.09082 1.22961 3.89966 1.51562 3.72339 1.84009ZM3.16016 3.18762C2.92017 3.95532 2.77905 4.79211 2.74878 5.64844L0.715088 5.64844C0.790283 4.50574 1.22925 3.46082 1.91724 2.62891C2.29907 2.8479 2.71729 3.03528 3.16016 3.18762ZM2.74878 6.35156C2.77905 7.20801 2.92017 8.04468 3.16016 8.81238C2.71729 8.96472 2.29907 9.1521 1.91724 9.37109C1.22925 8.53918 0.790283 7.49426 0.715088 6.35156L2.74878 6.35156ZM3.39795 9.47327C3.49609 9.71179 3.60474 9.94141 3.72339 10.1599C3.89966 10.4844 4.09082 10.7704 4.29248 11.0144C3.58936 10.7743 2.95264 10.3903 2.41724 9.89771C2.72241 9.73413 3.05176 9.59204 3.39795 9.47327ZM8.27661 10.1599C8.39526 9.94141 8.50391 9.71179 8.60205 9.47327C8.94824 9.59204 9.27734 9.73413 9.58276 9.89771C9.04736 10.3903 8.41064 10.7743 7.70752 11.0144C7.90918 10.7704 8.10034 10.4844 8.27661 10.1599ZM8.83984 8.81238C9.07983 8.04468 9.22095 7.20789 9.25122 6.35156L11.2849 6.35156C11.2097 7.49426 10.7708 8.53918 10.0828 9.37109C9.70093 9.1521 9.28271 8.96472 8.83984 8.81238ZM9.25122 5.64844C9.22095 4.79199 9.07983 3.95532 8.83984 3.18762C9.28271 3.03528 9.70093 2.8479 10.0828 2.62891C10.7708 3.46082 11.2097 4.50574 11.2849 5.64844L9.25122 5.64844Z" fill="#F6762C" fill-opacity="1.000000" fill-rule="nonzero"/>
</svg>
