<svg width="12.000000" height="9.140625" viewBox="0 0 12 9.14062" fill="none" xmlns="http://www.w3.org/2000/svg" xmlns:xlink="http://www.w3.org/1999/xlink">
	<desc>
			Created with Pixso.
	</desc>
	<defs/>
	<path d="M10.9453 0L1.05469 0C0.473877 0 0 0.473389 0 1.05469L0 8.08594C0 8.66528 0.47168 9.14062 1.05469 9.14062L10.9453 9.14062C11.5247 9.14062 12 8.66882 12 8.08594L12 1.05469C12 0.475342 11.5283 0 10.9453 0ZM10.7996 0.703125L6.02246 5.48047L1.20361 0.703125L10.7996 0.703125ZM0.703125 7.94031L0.703125 1.1969L4.08936 4.55408L0.703125 7.94031ZM1.2002 8.4375L4.58862 5.04919L5.77588 6.2262C5.91333 6.36243 6.13525 6.36206 6.27197 6.2251L7.42969 5.0675L10.7998 8.4375L1.2002 8.4375ZM11.2969 7.94031L7.92676 4.57031L11.2969 1.20032L11.2969 7.94031Z" fill="#F6762C" fill-opacity="1.000000" fill-rule="nonzero"/>
</svg>
